<svg width="21" height="21" viewBox="0 0 21 21" fill="none" xmlns="http://www.w3.org/2000/svg">
<g clip-path="url(#clip0_1_2)">
<circle cx="10.7898" cy="10.3133" r="9.97031" fill="#00FF29"/>
<path d="M6.4826 6.01281C6.41277 6.02024 6.21665 6.03212 6.0443 6.04104C5.63273 6.06332 5.05179 6.11681 5.03396 6.13316C5.02653 6.14207 5.0295 6.14653 5.04139 6.14653C5.09042 6.14653 5.25088 6.23716 5.33112 6.30997C5.40541 6.37683 5.42175 6.38574 5.46335 6.37831C5.54656 6.36345 6.37711 6.28174 6.68319 6.25796C7.83022 6.1703 9.09611 6.20002 10.3516 6.34117C10.4972 6.35751 10.619 6.36791 10.622 6.36494C10.6384 6.35008 9.92667 6.21636 9.53591 6.16139C9.25212 6.12127 8.59986 6.06332 8.20612 6.04252C8.03823 6.03361 7.82427 6.02024 7.7277 6.01281C7.5286 5.99498 6.66981 5.99646 6.4826 6.01281Z" fill="black"/>
<path d="M4.38021 6.20744C3.84235 6.31739 3.25547 6.619 2.73841 7.04988C2.52446 7.22966 2.25701 7.49413 2.14409 7.64123C2.02375 7.79723 1.94351 7.86855 1.84842 7.91015C1.82019 7.92204 1.68053 7.95324 1.53938 7.97999C1.32245 8.0201 1.27491 8.03348 1.24519 8.06468C1.20359 8.10628 1.06392 8.38264 1.05055 8.44653C1.04164 8.4911 1.04164 8.4911 1.14267 8.51339C1.63298 8.62333 2.46057 8.79272 2.4784 8.78529C2.49028 8.78083 2.54823 8.68277 2.60618 8.56539C2.69235 8.39452 2.73247 8.33212 2.81567 8.24149C2.94196 8.10479 2.95237 8.08845 2.98357 7.92947C3.05786 7.54762 3.20198 7.06177 3.28964 6.88793C3.34313 6.77947 3.42039 6.69181 3.50508 6.64277C3.58383 6.59672 3.92853 6.47488 4.1618 6.41099C4.32227 6.3679 4.35347 6.36345 4.56742 6.36196H4.79772L4.91064 6.41693C5.11419 6.51797 5.25534 6.70518 5.40838 7.07514C5.51536 7.33218 5.84372 8.30835 5.84372 8.36778C5.84372 8.45247 5.86303 8.46138 6.05618 8.46733C6.15127 8.4703 6.23002 8.47178 6.23002 8.46881C6.23002 8.46733 6.19585 8.37967 6.15425 8.27566C6.11264 8.17017 6.01012 7.90421 5.92543 7.68431C5.7308 7.17172 5.65353 6.98302 5.56439 6.80324C5.39352 6.45854 5.29694 6.33522 5.13796 6.25795C4.97304 6.17624 4.63577 6.15395 4.38021 6.20744ZM2.91671 7.37527C2.76961 7.81952 2.75178 7.86112 2.71167 7.88341C2.67898 7.90124 2.24959 7.85964 2.21987 7.83587C2.18867 7.81061 2.20947 7.69472 2.26444 7.58328C2.33428 7.43916 2.52297 7.25492 2.80081 7.05731C2.97762 6.93102 3.00734 6.91616 3.03408 6.94142C3.05043 6.95776 3.0326 7.02462 2.91671 7.37527Z" fill="black"/>
<path d="M2.83352 7.11526C2.7102 7.20292 2.50516 7.37825 2.42938 7.45997C2.36104 7.53425 2.27783 7.69175 2.27783 7.74672C2.27783 7.78684 2.28675 7.78981 2.51407 7.81061C2.65077 7.82398 2.68642 7.8225 2.69683 7.80764C2.70723 7.78981 2.94644 7.07663 2.94644 7.06029C2.94644 7.04246 2.91524 7.05732 2.83352 7.11526Z" fill="black"/>
<path d="M7.30722 6.29064C6.8392 6.30847 5.49753 6.42882 5.4693 6.45557C5.46335 6.46151 5.49158 6.52243 5.5317 6.59226C5.63719 6.77501 5.74417 7.01868 5.92543 7.49116C6.01161 7.71998 6.13493 8.03645 6.19733 8.19543L6.31025 8.48367L6.46032 8.47476C6.54204 8.46882 6.67576 8.45099 6.75748 8.43464C6.8392 8.41681 7.02938 8.3871 7.18093 8.36778C7.51672 8.32321 7.62815 8.29349 7.82428 8.19394L7.97583 8.11668L8.41414 8.05279C9.86575 7.84181 10.2238 7.81804 11.8641 7.82844C12.4659 7.83141 12.9547 7.82844 12.9517 7.8225C12.9428 7.80912 12.3054 7.35299 11.9652 7.11674C11.5997 6.86416 11.1911 6.61455 10.9846 6.51946C10.9043 6.4838 10.8434 6.47043 10.6354 6.44517C10.0024 6.36791 9.45568 6.31887 8.95645 6.2951C8.68455 6.28173 7.60141 6.27876 7.30722 6.29064Z" fill="black"/>
<path d="M4.38017 6.43476C4.23308 6.46447 4.10679 6.49716 3.92403 6.55659C3.56299 6.671 3.47087 6.72152 3.39509 6.84038C3.29554 6.99936 3.1856 7.3396 3.07862 7.82249C3.01622 8.10479 3.01622 8.10776 3.04445 8.13896C3.07416 8.17313 3.15291 8.21176 3.19005 8.21176C3.20194 8.21176 3.19005 8.19096 3.16034 8.16125C3.11279 8.1137 3.10982 8.10479 3.10982 8.00673C3.10982 7.8834 3.15885 7.63082 3.25394 7.27572C3.32675 6.99787 3.37281 6.88941 3.4575 6.79135C3.50504 6.73637 3.52881 6.723 3.67739 6.67546C3.98198 6.57739 4.30737 6.51796 4.52875 6.51796C4.92546 6.51796 5.11861 6.67694 5.29988 7.15091C5.40091 7.41984 5.548 7.8418 5.63715 8.13005C5.68915 8.29348 5.7367 8.43612 5.74413 8.44503C5.77087 8.48069 5.78722 8.44652 5.77682 8.37669C5.76493 8.30091 5.46034 7.38418 5.37417 7.16874C5.20479 6.7438 5.04878 6.53876 4.83631 6.45704C4.72933 6.41841 4.52281 6.40801 4.38017 6.43476Z" fill="black"/>
<path d="M4.29102 6.60266C4.13947 6.62495 3.86014 6.69033 3.72196 6.73341C3.57933 6.77947 3.55258 6.79285 3.50355 6.84633C3.41589 6.94291 3.36983 7.0692 3.27326 7.4778C3.17519 7.88639 3.15439 8.06914 3.20045 8.11669C3.21828 8.13303 3.27028 8.14343 3.37875 8.15383C3.62985 8.17315 3.61796 8.17612 3.60756 8.11669C3.59419 8.04834 3.6239 7.9057 3.66699 7.83141C3.75614 7.67689 3.99535 7.59815 4.43366 7.57734C4.74716 7.56397 4.97449 7.59963 5.10375 7.68432C5.13495 7.70512 5.16318 7.72147 5.16615 7.72147C5.17061 7.72147 5.20033 7.63529 5.23301 7.5298L5.29393 7.33665L5.24193 7.19401C5.13049 6.88645 5.01906 6.73193 4.85117 6.64872C4.75459 6.60118 4.74716 6.59969 4.54361 6.59821C4.4292 6.59672 4.31628 6.59821 4.29102 6.60266Z" fill="black"/>
<path d="M12.5446 7.44658C12.5446 7.45699 12.7957 7.63231 12.8105 7.63231C12.8343 7.63231 12.8313 7.58476 12.8046 7.54762C12.7927 7.53128 12.7511 7.50453 12.7125 7.49116C12.6322 7.46293 12.5446 7.43916 12.5446 7.44658Z" fill="black"/>
<path d="M5.28651 7.58775C5.26423 7.65759 5.24045 7.76456 5.23451 7.82548C5.22263 7.96366 5.16617 8.11818 5.11565 8.15087C5.0889 8.1687 5.03393 8.17613 4.88089 8.1791C4.66991 8.18504 4.13057 8.16276 3.86313 8.13601C3.77398 8.1271 3.6982 8.12412 3.69375 8.12858C3.68483 8.13601 3.75763 8.25042 3.77844 8.26379C3.78289 8.26676 4.05479 8.29648 4.38167 8.32916C5.32217 8.42425 5.62082 8.451 5.6431 8.44654C5.65796 8.44357 5.65648 8.42277 5.6327 8.34551C5.5599 8.10035 5.36229 7.51198 5.34595 7.48821C5.3296 7.46592 5.32217 7.47929 5.28651 7.58775Z" fill="black"/>
<path d="M1.94348 7.62788C1.82313 7.65611 1.55717 7.74823 1.48585 7.78537C1.40562 7.82697 1.31202 7.91909 1.32984 7.93841C1.3447 7.95178 1.7637 7.86857 1.83204 7.83886C1.90039 7.80914 1.98954 7.73188 2.04302 7.65759L2.07125 7.61748L2.02222 7.61896C1.99548 7.62045 1.95982 7.62342 1.94348 7.62788Z" fill="black"/>
<path d="M4.2094 7.66203C3.86766 7.70958 3.73097 7.78832 3.68937 7.96067C3.67897 8.00228 3.67303 8.03794 3.676 8.04091C3.67897 8.04388 3.7488 8.05279 3.83052 8.06171C4.251 8.10628 5.02955 8.12411 5.07561 8.08845C5.10533 8.06617 5.1603 7.9265 5.1603 7.87301C5.15882 7.80169 5.06818 7.72443 4.93743 7.68432C4.84234 7.6546 4.37135 7.63974 4.2094 7.66203Z" fill="black"/>
<path d="M10.8582 7.89384C10.2787 7.90721 9.84043 7.93693 9.29811 8.00379C9.01433 8.03796 8.3056 8.13751 8.29818 8.14345C8.29669 8.14642 8.38287 8.1598 8.49133 8.17317C9.96969 8.36483 10.9875 8.56244 12.0067 8.8596C12.9948 9.14636 13.6233 9.39449 14.5846 9.87737L15.0585 10.1151L15.164 10.0705C15.4627 9.9472 16.112 9.80159 16.9841 9.66193C17.727 9.54307 18.0539 9.51187 18.6096 9.51187C19.1445 9.51187 19.1296 9.53267 18.7477 9.3202C18.2188 9.02601 17.8845 8.87 17.5309 8.75114C17.4239 8.71548 17.3362 8.68725 17.3348 8.68725C17.3333 8.68725 17.3348 8.69914 17.3392 8.714C17.3541 8.77194 17.3229 8.77491 16.7627 8.78234C16.2308 8.78829 16.0139 8.80166 15.3973 8.86555C14.8639 8.92201 14.5014 8.96955 14.2012 9.02453C13.7629 9.10476 13.6545 9.10179 13.2577 9.00224C12.9413 8.92349 12.5505 8.80017 12.5193 8.77046C12.5089 8.76154 12.5059 8.7452 12.5134 8.7348C12.5312 8.70657 13.3781 8.5669 13.8892 8.51044C14.5147 8.43912 15.3126 8.39901 15.9441 8.40792C16.1744 8.40941 16.3527 8.40792 16.3378 8.40198C16.2977 8.38564 15.6231 8.23706 15.3156 8.17614C15.0645 8.12711 14.8282 8.09293 14.5875 8.07065C14.5311 8.0647 14.3171 8.03796 14.1121 8.01122C13.4895 7.92653 13.3573 7.91613 12.8789 7.9087C12.1865 7.89681 11.0929 7.88938 10.8582 7.89384Z" fill="black"/>
<path d="M2.8691 8.28161C2.78738 8.3663 2.75321 8.41682 2.66555 8.59363C2.6076 8.70952 2.566 8.80907 2.57343 8.81352C2.58086 8.81798 2.61057 8.80758 2.64029 8.78975C2.67595 8.76895 2.70567 8.76152 2.73538 8.76746C2.76807 8.77489 2.78441 8.76895 2.81859 8.73329C2.93448 8.61294 3.06226 8.64712 3.04145 8.79421C3.03551 8.83284 3.04294 8.85364 3.07563 8.89079C3.11723 8.93684 3.11872 8.93684 4.24495 9.17606C4.86601 9.30829 5.37563 9.41378 5.3786 9.41081C5.38009 9.40784 5.43209 9.26818 5.49301 9.10177C5.55393 8.93387 5.62822 8.74221 5.65645 8.67386C5.68616 8.607 5.70994 8.54905 5.70994 8.54608C5.70994 8.52974 5.14236 8.47031 3.73383 8.33807C3.43519 8.30984 3.16775 8.28012 3.13803 8.27121C3.10831 8.2623 3.05928 8.24001 3.02957 8.21921C2.99985 8.19841 2.97311 8.18206 2.97162 8.18206C2.97014 8.18206 2.92408 8.22664 2.8691 8.28161Z" fill="black"/>
<path d="M7.92083 8.22218C7.87329 8.24298 7.83466 8.26527 7.83466 8.26972C7.83466 8.27567 8.05752 8.30538 8.32942 8.33658C10.0619 8.53419 10.9444 8.74369 12.24 9.26669C12.8403 9.50887 14.3172 10.1983 14.3439 10.2503C14.4048 10.3647 14.1938 10.3885 13.0171 10.4063C12.5208 10.4122 12.3069 10.4211 12.3069 10.4316C12.3069 10.4405 12.3203 10.4776 12.3366 10.5133L12.3663 10.5786L13.2028 10.5697C14.1998 10.5593 14.4316 10.5415 14.5906 10.4672C14.6247 10.4509 14.7005 10.3929 14.7614 10.3394C14.8208 10.2845 14.8922 10.225 14.9189 10.2057C14.9442 10.1864 14.9665 10.1641 14.9665 10.1567C14.9665 10.1403 14.2874 9.7986 13.913 9.62922C12.7868 9.11365 11.4035 8.70803 9.89396 8.4495C9.49874 8.38116 8.9802 8.30687 8.45869 8.24149C8.25811 8.21772 8.07535 8.19395 8.0501 8.18949C8.02038 8.18503 7.97581 8.19692 7.92083 8.22218Z" fill="black"/>
<path d="M3.37881 8.23257C3.38178 8.23554 3.45161 8.24149 3.53333 8.24594C3.62099 8.2504 3.66408 8.24892 3.63734 8.24297C3.59276 8.2296 3.36692 8.22217 3.37881 8.23257Z" fill="black"/>
<path d="M7.55828 8.37523C7.50777 8.39009 7.33096 8.4198 7.16603 8.4406C7.00111 8.46141 6.85848 8.48369 6.84956 8.48964C6.84065 8.49558 7.02043 8.53124 7.24775 8.56838C8.45867 8.77194 9.31746 9.00372 10.304 9.39448C10.8196 9.59804 11.304 9.83131 11.9488 10.1849C12.142 10.2904 12.2296 10.3305 12.2846 10.338C12.4673 10.3617 14.1938 10.3112 14.2429 10.2815C14.2755 10.2607 13.0825 9.69313 12.4555 9.43014C11.0306 8.83137 10.1287 8.60998 8.25512 8.39752C7.73509 8.33957 7.68755 8.33808 7.55828 8.37523Z" fill="black"/>
<path d="M15.2562 8.4807C14.9174 8.4911 14.3929 8.52676 14.1492 8.55351C14.0794 8.56242 14.017 8.56837 14.0081 8.56837C13.9769 8.56985 14.0527 8.60105 14.4018 8.7318L14.7629 8.86552L15.1655 8.82095C15.5563 8.77786 15.9248 8.74518 16.2412 8.72437C16.3259 8.71843 16.3913 8.711 16.3883 8.70803C16.3675 8.68723 15.6841 8.46436 15.6454 8.46733C15.6187 8.46733 15.4449 8.47476 15.2562 8.4807Z" fill="black"/>
<path d="M16.2962 8.58769L16.6082 8.69764L16.898 8.70655C17.0777 8.71101 17.1788 8.70952 17.1624 8.70061C17.1491 8.69318 16.993 8.64266 16.8133 8.58917L16.4894 8.49111L16.2368 8.48517L15.9842 8.47922L16.2962 8.58769Z" fill="black"/>
<path d="M6.3786 8.55204C6.29688 8.56095 6.29688 8.56095 6.46775 8.5877C7.43945 8.74222 8.49734 8.974 9.09017 9.16121C9.81226 9.38854 10.2654 9.60101 11.2357 10.1686C11.3946 10.2607 11.5477 10.3424 11.5774 10.3513C11.6368 10.3677 11.9221 10.3692 12.0246 10.3543L12.0915 10.3439L12.0246 10.3053C11.8419 10.1968 11.3144 9.92342 11.0366 9.7897C10.5314 9.549 10.157 9.39745 9.59534 9.21024C8.79152 8.93983 8.19721 8.79719 7.17498 8.62781C6.65496 8.54164 6.55987 8.53272 6.3786 8.55204Z" fill="black"/>
<path d="M5.73233 8.67535C5.67736 8.7957 5.45746 9.38704 5.45746 9.41378C5.45746 9.4331 5.43963 9.42864 6.10229 9.57128C6.42917 9.64111 6.72038 9.705 6.75307 9.71243C6.80507 9.72729 6.82736 9.75849 6.79616 9.7778C6.78724 9.78375 5.6833 9.55939 5.48866 9.51185L5.453 9.50293L5.4634 10.1611C5.46786 10.5237 5.47975 10.8921 5.48718 10.9828C5.51392 11.3171 5.52135 11.5177 5.50501 11.5726C5.49609 11.6038 5.49609 11.6321 5.50203 11.6365C5.52135 11.6484 6.3103 11.9411 6.32368 11.9411C6.32962 11.9411 6.33408 11.846 6.33408 11.7286C6.33408 11.4047 6.37865 11.0957 6.46037 10.855C6.56438 10.5504 6.8229 10.2013 7.05023 10.0586C7.09332 10.0319 7.19286 9.98879 7.27013 9.96353C7.38602 9.9249 7.44248 9.9145 7.58511 9.90855C7.73964 9.90261 7.77232 9.90558 7.89267 9.94124C8.05017 9.98581 8.28046 10.0972 8.45876 10.2146C8.70392 10.3766 9.01147 10.7228 9.29675 11.1566C9.36063 11.2532 9.4171 11.3349 9.42452 11.3394C9.4587 11.3602 10.475 11.485 10.4988 11.4701C10.5047 11.4671 10.53 11.4226 10.5552 11.3721C10.6518 11.1804 10.7766 11.0214 10.9935 10.8119C11.1703 10.641 11.3011 10.5356 11.4274 10.4672L11.521 10.4152L11.1822 10.2176C10.6533 9.90707 10.524 9.83724 10.1748 9.66637C9.43195 9.30384 8.7678 9.0988 7.56283 8.8581C7.18841 8.78381 6.26425 8.62334 5.84228 8.55945L5.78879 8.55203L5.73233 8.67535Z" fill="black"/>
<path d="M1 8.66494C1 8.71694 1.00594 8.80906 1.01486 8.86849C1.02229 8.92792 1.04012 9.07353 1.052 9.1924C1.06537 9.31126 1.09212 9.51184 1.11292 9.6411C1.13224 9.76888 1.15304 9.93529 1.15749 10.0126C1.16492 10.1433 1.19761 10.283 1.22138 10.2978C1.22733 10.3023 1.23178 10.127 1.23178 9.90855C1.2303 9.52967 1.23178 9.50738 1.26447 9.41081C1.3031 9.29937 1.37145 9.21468 1.43831 9.19834C1.57054 9.16565 1.79341 9.42418 1.97468 9.81791C2.04897 9.97986 2.22875 10.4211 2.36544 10.7762C2.40407 10.8773 2.42042 10.8996 2.46796 10.9278C2.49768 10.9441 2.54819 10.9843 2.5794 11.0155C2.62694 11.066 2.63883 11.0912 2.66112 11.1982L2.68637 11.3245L2.85724 11.4018C2.95084 11.4449 3.03702 11.479 3.04742 11.4805C3.06079 11.4805 3.05336 11.4582 3.02811 11.4166C2.94193 11.2784 2.82752 11.0259 2.76809 10.8461C2.71758 10.693 2.6938 10.644 2.64923 10.5965C2.56602 10.5088 2.52591 10.4152 2.42636 10.0824C2.32978 9.75848 2.25698 9.44498 2.19606 9.10325C2.17526 8.98438 2.15297 8.86849 2.14703 8.84323L2.13514 8.79866L1.60175 8.68425C1.30756 8.62037 1.052 8.56836 1.03417 8.56836C1.00149 8.56836 1 8.57431 1 8.66494Z" fill="black"/>
<path d="M13.5401 8.62184C13.1969 8.67385 12.7288 8.74962 12.7169 8.75854C12.6961 8.77042 12.9146 8.84174 13.2429 8.92792C13.5163 9.00072 13.543 9.00518 13.7184 9.00518C13.8729 9.00666 13.9606 8.99626 14.2354 8.94723C14.4167 8.91454 14.5653 8.88483 14.5653 8.88037C14.5653 8.87591 14.3959 8.81054 14.1908 8.73476C13.7793 8.5847 13.7882 8.58618 13.5401 8.62184Z" fill="black"/>
<path d="M2.89736 8.75854C2.86319 8.79568 2.86468 8.80163 2.91222 8.81203C2.95382 8.82391 2.97611 8.8046 2.97611 8.75705C2.97611 8.72288 2.92857 8.72437 2.89736 8.75854Z" fill="black"/>
<path d="M2.22727 8.87594C2.37585 9.73918 2.58534 10.4851 2.69678 10.5534C2.73095 10.5742 2.69975 10.2666 2.6418 10.017C2.56306 9.67381 2.53631 9.51334 2.50808 9.23699C2.4962 9.10178 2.48134 8.96509 2.47688 8.93091L2.46945 8.86999L2.35802 8.84474C2.21092 8.81353 2.21538 8.81205 2.22727 8.87594Z" fill="black"/>
<path d="M2.54523 8.90564C2.54523 8.93535 2.59129 9.38406 2.59872 9.43012C2.62546 9.6099 2.64329 9.70053 2.68935 9.90557C2.75918 10.2146 2.78295 10.3662 2.78295 10.5014C2.78295 10.5786 2.7889 10.6188 2.80227 10.6232C3.0296 10.7153 5.3192 11.5771 5.38903 11.5964C5.40389 11.6009 5.42172 11.5949 5.42915 11.583C5.44846 11.5533 5.44549 11.3795 5.42172 11.0259C5.40983 10.855 5.39498 10.4419 5.38903 10.1091C5.38012 9.50887 5.37863 9.50144 5.34743 9.48807C5.33109 9.48064 4.81552 9.36772 4.20337 9.23697L3.09051 9.00073L3.04742 9.03193C3.02365 9.04827 2.99394 9.08839 2.98056 9.11959C2.92708 9.2548 2.79781 9.22954 2.74581 9.07502C2.72798 9.01856 2.71164 8.99776 2.67895 8.98735C2.65518 8.97844 2.62546 8.95467 2.61209 8.93387C2.58832 8.89821 2.54523 8.88038 2.54523 8.90564Z" fill="black"/>
<path d="M2.81262 9.04679C2.81262 9.07651 2.85571 9.13297 2.87948 9.13297C2.90623 9.13297 2.93891 9.07502 2.92108 9.05719C2.91366 9.04976 2.88691 9.03936 2.86017 9.0349C2.82451 9.02747 2.81262 9.03045 2.81262 9.04679Z" fill="black"/>
<path d="M1.40566 9.29937C1.33583 9.37663 1.2972 9.51333 1.29869 9.67974C1.29869 9.77928 1.29869 9.77928 1.31949 9.7258C1.3596 9.61733 1.40269 9.55047 1.47698 9.48361C1.51858 9.44647 1.5691 9.41081 1.58842 9.40635C1.63745 9.39446 1.63299 9.38258 1.56464 9.32017C1.4963 9.25926 1.44875 9.25331 1.40566 9.29937Z" fill="black"/>
<path d="M1.53481 9.52076C1.48133 9.56385 1.44567 9.60694 1.42041 9.66191C1.30897 9.9041 1.26589 10.5311 1.3268 11.0125C1.37435 11.3929 1.39812 11.4984 1.50064 11.8148C1.57642 12.0481 1.65071 12.1996 1.75025 12.323C1.86169 12.4626 1.91666 12.4909 2.08604 12.4909C2.2688 12.4909 3.03249 12.4077 3.09638 12.3809C3.1989 12.3378 3.27319 12.219 3.27319 12.0971C3.27319 12.054 3.26279 12.0451 3.09935 11.9575C2.67293 11.7257 2.6551 11.7019 2.61201 11.3394C2.59716 11.2205 2.57784 11.1299 2.5615 11.1016C2.54812 11.0764 2.49761 11.0303 2.44858 10.9976L2.36091 10.9382L2.16033 10.433C1.86615 9.69906 1.74134 9.45985 1.64625 9.45985C1.62693 9.45985 1.57642 9.48659 1.53481 9.52076ZM1.71162 9.78672C1.96718 9.97244 2.18113 10.7911 2.15439 11.4805C2.14399 11.742 2.11724 11.8921 2.06227 12.0124C2.01621 12.1135 1.98798 12.1476 1.92855 12.1714C1.8602 12.2011 1.80374 12.1818 1.72648 12.1046C1.49024 11.8683 1.31046 11.1195 1.33126 10.4642C1.34018 10.176 1.36543 10.0304 1.43081 9.89518C1.50658 9.74215 1.60019 9.70649 1.71162 9.78672Z" fill="black"/>
<path d="M1.54085 9.85507C1.51708 9.87735 1.50519 9.90261 1.50965 9.91747C1.51411 9.93084 1.56017 10.0556 1.61217 10.1953L1.70429 10.4464L1.72212 10.3142C1.73103 10.2399 1.75035 10.1359 1.76521 10.0809C1.79047 9.98284 1.79047 9.98136 1.75926 9.93678C1.71469 9.87438 1.64189 9.81644 1.60771 9.81644C1.59137 9.81644 1.56165 9.83426 1.54085 9.85507Z" fill="black"/>
<path d="M1.45319 10.0304C1.44873 10.0438 1.44278 10.0646 1.43833 10.0779C1.43387 10.0913 1.43684 10.1106 1.44576 10.121C1.45319 10.1314 1.50073 10.2577 1.55125 10.4048C1.60028 10.5504 1.64337 10.6722 1.64634 10.6752C1.64931 10.6782 1.66268 10.6633 1.67605 10.644C1.69834 10.6084 1.69834 10.6009 1.64188 10.4672C1.60919 10.3914 1.55868 10.2592 1.52896 10.173C1.46804 10.0022 1.46507 9.99473 1.45319 10.0304Z" fill="black"/>
<path d="M1.82017 10.1626C1.79788 10.2488 1.78154 10.5014 1.79342 10.5504C1.80828 10.6083 1.83205 10.5831 1.83205 10.5103C1.83205 10.4761 1.84245 10.387 1.85434 10.3112C1.8692 10.2161 1.87217 10.1626 1.86177 10.1373C1.85434 10.1151 1.84542 10.0987 1.84097 10.0987C1.838 10.0987 1.82759 10.1269 1.82017 10.1626Z" fill="black"/>
<path d="M1.41168 10.2562C1.3879 10.28 1.40573 10.962 1.42951 10.9605C1.43396 10.959 1.47854 10.9234 1.52608 10.8803L1.61375 10.8015L1.51717 10.5237C1.46517 10.3721 1.41762 10.2518 1.41168 10.2562Z" fill="black"/>
<path d="M1.91521 10.4434C1.90036 10.5875 1.90481 10.6901 1.9271 10.745C1.95087 10.8 1.96573 10.8059 2.0103 10.7822C2.03705 10.7673 2.03111 10.7242 1.95533 10.3988C1.94047 10.335 1.92561 10.3528 1.91521 10.4434Z" fill="black"/>
<path d="M1.51258 10.9932L1.44275 11.0719L1.45166 11.167C1.45612 11.219 1.46355 11.2651 1.46801 11.271C1.47395 11.2755 1.51555 11.2651 1.56161 11.2487C1.64333 11.219 1.6463 11.216 1.64333 11.167C1.63739 11.0481 1.6151 10.9248 1.60024 10.9204C1.59133 10.9174 1.55121 10.9501 1.51258 10.9932Z" fill="black"/>
<path d="M1.98065 11.0021C1.98065 11.0541 1.99105 11.0897 2.02077 11.1358C2.04306 11.17 2.06683 11.1982 2.07426 11.1982C2.08763 11.1982 2.07574 11.0125 2.06088 10.956C2.05643 10.9412 2.0386 10.9308 2.01631 10.9308C1.98362 10.9308 1.98065 10.9367 1.98065 11.0021Z" fill="black"/>
<path d="M1.93607 11.2443C1.91824 11.2844 1.91973 11.2978 1.94499 11.3423C1.95984 11.3721 1.99699 11.4226 2.02819 11.4568L2.08316 11.5177L2.08465 11.43C2.08465 11.3527 2.07871 11.3349 2.03116 11.271C2.00145 11.2309 1.97322 11.1982 1.96579 11.1982C1.95984 11.1982 1.94647 11.219 1.93607 11.2443Z" fill="black"/>
<path d="M1.57647 11.3215C1.52893 11.3394 1.4903 11.3616 1.4903 11.372C1.4903 11.4122 1.56756 11.6692 1.61362 11.7777C1.67008 11.9129 1.71762 11.9961 1.72505 11.9723C1.72802 11.9634 1.72356 11.8297 1.71465 11.6766C1.70574 11.5236 1.69831 11.3765 1.69831 11.3512C1.69831 11.326 1.68939 11.3022 1.68048 11.2978C1.67008 11.2948 1.62253 11.3052 1.57647 11.3215Z" fill="black"/>
<path d="M1.77865 11.3691C1.7727 11.3825 1.77716 11.4969 1.78608 11.6261C1.79499 11.7539 1.80242 11.9114 1.80242 11.9738C1.80242 12.0377 1.80688 12.0897 1.81431 12.0897C1.82025 12.0897 1.82471 11.9218 1.82471 11.7182C1.82471 11.4255 1.82025 11.3468 1.80539 11.3468C1.79499 11.3468 1.7831 11.3572 1.77865 11.3691Z" fill="black"/>
<path d="M1.90039 11.4597C1.88851 11.4909 1.88851 11.9485 1.90039 12.0362C1.91079 12.1045 1.91079 12.1045 1.94051 12.0793C1.98211 12.0421 2.02074 11.9485 2.04749 11.8237C2.08612 11.641 2.08166 11.6187 1.98954 11.5206C1.92862 11.4567 1.90782 11.4419 1.90039 11.4597Z" fill="black"/>
<path d="M18.4209 9.57277C18.1921 9.58466 17.8727 9.6114 17.6335 9.63963C17.1149 9.70055 16.2323 9.85359 15.7836 9.95908C15.4865 10.0289 15.1596 10.1329 15.1596 10.1567C15.1596 10.1626 15.2086 10.1938 15.2681 10.225L15.375 10.2815L15.6425 10.1983C16.3215 9.98731 16.6632 9.91153 17.4774 9.78821C18.155 9.68421 18.3555 9.66489 18.7329 9.66192C18.9216 9.66192 19.1222 9.66489 19.1787 9.67083C19.2827 9.68272 19.2827 9.68272 19.2485 9.65449C19.1935 9.60694 19.0346 9.5802 18.7701 9.57426C18.6349 9.5698 18.4789 9.5698 18.4209 9.57277Z" fill="black"/>
<path d="M18.2753 9.75108C17.9024 9.78822 17.0896 9.91154 16.6885 9.99326C16.3274 10.0676 16.0748 10.1344 15.6187 10.2785C15.3884 10.3513 15.3854 10.3513 15.2339 10.4717C14.8981 10.7376 14.6812 11.0036 14.2607 11.6633C14.1552 11.8282 14.1329 11.8728 14.1507 11.8832C14.1626 11.8906 14.2206 11.8951 14.2815 11.8936L14.39 11.8891L14.5192 11.6663C14.7436 11.277 14.9338 11.0199 15.1804 10.7748C15.3438 10.6114 15.4865 10.5133 15.6648 10.442C15.7777 10.3974 16.3839 10.2429 16.7791 10.1597C17.5428 9.99772 18.5279 9.87589 19.0672 9.87589C19.2738 9.87589 19.3421 9.8952 19.4149 9.97395C19.4535 10.0155 19.4535 10.0155 19.4535 9.98286C19.4535 9.92194 19.4208 9.81942 19.3956 9.79565C19.3243 9.73176 18.7166 9.70799 18.2753 9.75108Z" fill="black"/>
<path d="M18.9097 10.5058C18.8042 10.8208 18.724 11.0823 18.7299 11.0883C18.7388 11.0987 19.1771 10.9694 19.2158 10.9456C19.2247 10.9397 19.2663 10.8164 19.3064 10.6693C19.3703 10.4449 19.3837 10.378 19.3896 10.2369C19.397 10.0957 19.3941 10.0631 19.3718 10.0304C19.3421 9.98431 19.2812 9.95757 19.1771 9.94271L19.0999 9.93231L18.9097 10.5058Z" fill="black"/>
<path d="M18.6884 9.96055C18.198 9.99026 17.3586 10.1076 16.8341 10.2191C16.427 10.3052 15.9203 10.4315 15.9025 10.4509C15.8966 10.4568 15.8416 10.6604 15.7792 10.9011C15.6083 11.5622 15.5741 11.7064 15.5816 11.7138C15.5994 11.7316 16.6172 11.5697 17.2769 11.4434C17.6542 11.372 18.1371 11.2636 18.4387 11.1834L18.62 11.1358L18.8146 10.5534C18.9201 10.2339 19.0078 9.96797 19.0078 9.96055C19.0078 9.95015 18.8488 9.95015 18.6884 9.96055Z" fill="black"/>
<path d="M7.45428 9.9858C7.21358 10.0319 7.06352 10.1076 6.91345 10.2607C6.58361 10.5935 6.43057 10.9991 6.41423 11.5845L6.4068 11.8297L6.4588 11.7405C6.48852 11.6915 6.51972 11.6246 6.52715 11.5919C6.67127 11.0407 6.73962 10.849 6.85402 10.6752C6.94317 10.5385 7.03529 10.4538 7.16752 10.3884C7.30867 10.3171 7.42011 10.2919 7.59989 10.2919C7.86436 10.2919 8.10357 10.3751 8.33239 10.5459C8.46016 10.641 8.72315 10.9055 8.88064 11.0972L8.99802 11.2413L9.11094 11.271C9.28924 11.3186 9.30558 11.3215 9.30558 11.3067C9.30558 11.2874 9.05151 10.9159 8.9579 10.797C8.76327 10.5504 8.58943 10.384 8.39182 10.2547C8.03968 10.0229 7.72618 9.9338 7.45428 9.9858Z" fill="black"/>
<path d="M14.9887 10.2369C14.9649 10.2547 14.8862 10.3201 14.8149 10.3825C14.7436 10.4464 14.6559 10.5118 14.6202 10.5281C14.5341 10.5697 14.384 10.6009 14.2102 10.6128C14.0943 10.6217 14.066 10.6292 14.0438 10.6544C14.0304 10.6723 13.8536 10.913 13.653 11.1908C13.3439 11.6172 13.2905 11.6975 13.3127 11.7064C13.3469 11.7212 13.9947 11.852 14.0304 11.852C14.0482 11.852 14.0958 11.7925 14.173 11.6692C14.6024 10.9991 14.8134 10.7332 15.1328 10.4672C15.222 10.3929 15.2888 10.3276 15.2844 10.3201C15.274 10.3008 15.0764 10.2027 15.0526 10.2027C15.0422 10.2027 15.014 10.2191 14.9887 10.2369Z" fill="black"/>
<path d="M7.42003 10.3736C7.16596 10.4197 6.97726 10.5697 6.848 10.8268C6.77965 10.962 6.68605 11.2309 6.66822 11.3394L6.6593 11.3988L6.69199 11.3542C6.70982 11.329 6.78559 11.2487 6.86137 11.1759C7.06344 10.9768 7.28779 10.855 7.59238 10.7792C7.81376 10.7228 8.13172 10.7317 8.48831 10.806C8.54774 10.8178 8.31893 10.6083 8.18075 10.5266C8.04555 10.4434 7.92965 10.4003 7.77513 10.3721C7.63844 10.3483 7.56266 10.3483 7.42003 10.3736Z" fill="black"/>
<path d="M11.7839 10.4405C11.6056 10.4568 11.515 10.4865 11.3902 10.5697C11.1703 10.7153 10.8583 11.0184 10.7216 11.222C10.6399 11.3409 10.5789 11.4671 10.5938 11.4805C10.5997 11.4865 10.6532 11.4969 10.7097 11.5028L10.8137 11.5117L10.8508 11.4404C10.9132 11.3215 11.0276 11.1536 11.1435 11.0095C11.4095 10.6812 11.5328 10.6232 12.0454 10.5876C12.1687 10.5786 12.2713 10.5697 12.2727 10.5682C12.2757 10.5668 12.2623 10.5356 12.243 10.4984L12.2103 10.433L12.0618 10.4315C11.98 10.4301 11.8552 10.4345 11.7839 10.4405Z" fill="black"/>
<path d="M15.6678 10.5147C15.4212 10.6158 15.2132 10.7985 14.9279 11.1685C14.7437 11.4077 14.4866 11.8222 14.5104 11.846C14.5193 11.8564 15.4256 11.7494 15.4643 11.7346C15.488 11.7242 15.5029 11.6855 15.5371 11.5459C15.5846 11.3527 15.7926 10.5445 15.806 10.4984C15.8194 10.4598 15.7971 10.4627 15.6678 10.5147Z" fill="black"/>
<path d="M13.2206 10.6485C12.9784 10.6529 12.8254 10.6604 12.8551 10.6678C12.9205 10.6812 13.0081 10.7733 13.0319 10.852C13.0587 10.9397 13.0542 11.0853 13.02 11.225C12.9844 11.3706 12.9487 11.4478 12.8804 11.5147C12.8105 11.5845 12.7362 11.6157 12.6144 11.6246C12.5178 11.6306 12.5 11.6276 12.4272 11.589C12.3588 11.5548 12.338 11.5325 12.2979 11.4597C12.2207 11.3186 12.1939 11.1997 12.2132 11.0853C12.2311 10.9872 12.3039 10.8119 12.3484 10.7629C12.3856 10.7213 12.448 10.693 12.5505 10.6708C12.6382 10.6514 12.6352 10.6514 12.3811 10.65C11.8462 10.647 11.5625 10.699 11.399 10.8283C11.2906 10.9129 11.2995 10.9159 11.714 10.9115C12.0602 10.9085 12.0884 10.91 12.1048 10.9352C12.1181 10.9575 12.1152 10.9664 12.0929 10.9843C12.0691 11.0006 11.9889 11.0051 11.6605 11.0051C11.3262 11.0051 11.2534 11.0095 11.2267 11.0273C11.1851 11.0571 11.0112 11.2874 11.0172 11.3052C11.0201 11.3141 11.2222 11.3186 11.5402 11.3171C12.0453 11.3156 12.0988 11.32 12.0988 11.3631C12.0988 11.3691 12.0884 11.3854 12.0751 11.3973C12.0557 11.4181 11.9815 11.4211 11.4956 11.4211H10.9399L10.9043 11.4924C10.8849 11.531 10.8641 11.5875 10.8582 11.6172C10.8493 11.6633 10.8523 11.6737 10.8835 11.6945C10.9176 11.7168 11.0083 11.7168 11.8477 11.7034C12.3574 11.696 12.8714 11.6885 12.9903 11.6885H13.2072L13.491 11.2978C13.8536 10.7985 13.9561 10.6544 13.9561 10.6425C13.9561 10.6381 13.8848 10.6351 13.7971 10.6366C13.7079 10.6396 13.4494 10.644 13.2206 10.6485Z" fill="black"/>
<path d="M19.3495 10.7718C19.3317 10.8312 19.3109 10.9055 19.3005 10.9382L19.2826 10.9976L19.0895 11.0615C18.1193 11.3854 16.5324 11.6915 14.8104 11.8891C14.6024 11.9129 14.4508 11.9367 14.4241 11.9515C14.3513 11.9887 14.2027 11.9693 13.6886 11.8594L13.2206 11.7598L12.2415 11.7702C11.7036 11.7762 11.2713 11.7866 11.2831 11.7925C11.3129 11.8089 11.8359 11.9188 12.0543 11.9545C12.5505 12.0362 12.9235 12.0674 14.0824 12.1283C14.3275 12.1402 14.5682 12.1462 14.6173 12.1417C14.7837 12.1224 15.8178 11.9723 16.4017 11.8832C17.73 11.6766 18.4669 11.5281 18.9038 11.3795C19.1029 11.3111 19.4164 11.1834 19.5486 11.118C19.7195 11.0318 19.7328 10.9753 19.6169 10.8283C19.562 10.7584 19.5204 10.7272 19.4208 10.6826L19.3792 10.6648L19.3495 10.7718Z" fill="black"/>
<path d="M2.79779 10.7138C2.79779 10.7183 2.82156 10.7941 2.85128 10.8817C2.91071 11.0586 3.01174 11.2636 3.12169 11.4359L3.19301 11.5474L4.3861 12.0659C5.04134 12.3512 5.58068 12.58 5.58514 12.5755C5.58959 12.5711 5.56879 12.5191 5.53759 12.4597C5.48707 12.3571 5.48113 12.3319 5.44101 12.0184C5.41873 11.8356 5.39644 11.6811 5.39198 11.6766C5.38753 11.6737 5.07402 11.5548 4.69663 11.4137C4.31776 11.2725 3.7487 11.0586 3.42925 10.9382C2.81859 10.7064 2.79779 10.699 2.79779 10.7138Z" fill="black"/>
<path d="M12.5446 10.7436C12.4302 10.7688 12.4005 10.7911 12.35 10.8951C12.295 11.0125 12.295 11.0348 12.35 10.9382C12.3767 10.8922 12.4139 10.852 12.4466 10.8342C12.4971 10.8075 12.5015 10.8075 12.5521 10.8312C12.6204 10.8639 12.6486 10.9293 12.6486 11.0526C12.6472 11.277 12.4689 11.43 12.3604 11.3007C12.3158 11.2487 12.3084 11.2235 12.3025 11.1016L12.2995 11.0125L12.2861 11.0868C12.2698 11.1789 12.2906 11.2844 12.347 11.4003C12.4005 11.5102 12.4466 11.5444 12.555 11.5518C12.8195 11.5712 12.9532 11.4062 12.9711 11.0407C12.9785 10.9026 12.977 10.8847 12.9458 10.8283C12.9265 10.7941 12.8908 10.7584 12.8626 10.7451C12.8061 10.7183 12.662 10.7168 12.5446 10.7436Z" fill="black"/>
<path d="M7.69202 10.8268C7.48995 10.8639 7.24628 10.9635 7.06947 11.0838C6.72923 11.3156 6.43207 11.8371 6.3028 12.4344C6.19285 12.9455 6.30577 13.6765 6.57767 14.2114C6.80351 14.6557 7.10513 15.0227 7.43943 15.2604C7.58356 15.3644 7.80048 15.4699 8.00403 15.5353C8.29079 15.6289 8.41263 15.6482 8.7187 15.6467C8.96683 15.6467 8.99654 15.6437 9.11986 15.6066C9.3457 15.5382 9.54332 15.4327 9.85979 15.2173L9.98905 15.1282L9.98014 15.0435C9.97122 14.9647 9.97568 14.9484 10.0336 14.8251L10.0975 14.6913L10.0411 14.4239C10.0099 14.2753 9.98014 14.155 9.97419 14.155C9.96825 14.155 9.94448 14.2055 9.92219 14.2664C9.84642 14.4759 9.66515 14.7389 9.50171 14.8785C9.22833 15.1133 8.95494 15.2218 8.59984 15.2351C8.22542 15.25 7.9342 15.1623 7.58504 14.9276C6.87186 14.4506 6.47515 13.5146 6.62373 12.6603C6.72477 12.0838 7.0873 11.6053 7.56721 11.4166C7.77077 11.3364 7.8406 11.3245 8.10953 11.3245C8.33388 11.3245 8.37548 11.329 8.47354 11.3587C8.60429 11.4003 8.75585 11.4746 9.01289 11.6247C9.11838 11.6856 9.20753 11.7316 9.21198 11.7287C9.2209 11.7183 8.98317 11.3394 8.90145 11.2324C8.86877 11.1893 8.79299 11.0987 8.73207 11.0289L8.62361 10.904L8.41857 10.8639C8.19422 10.8194 7.83465 10.8015 7.69202 10.8268Z" fill="black"/>
<path d="M19.7655 10.9947C19.7655 11.0868 19.6764 11.1447 19.296 11.3037C18.5873 11.5979 17.8043 11.7554 15.0779 12.1506C14.5876 12.2219 14.5489 12.2234 13.8551 12.1863C12.8016 12.1313 12.3143 12.0823 11.7943 11.9783C11.4035 11.901 10.9162 11.7911 10.8701 11.7703C10.8136 11.745 10.7706 11.6707 10.7824 11.6202C10.7928 11.583 10.781 11.5786 10.6235 11.5652C10.5536 11.5578 10.5507 11.5608 10.5313 11.6053C10.4288 11.8505 10.5328 11.9708 10.9474 12.0882C11.4748 12.2383 12.5832 12.4017 13.4955 12.4626C13.8179 12.4834 14.6202 12.4715 14.9753 12.4403C16.5859 12.2947 18.0806 12.0124 19.0776 11.6648C19.3005 11.586 19.9141 11.3483 19.9735 11.3171C20.0003 11.3022 20.0003 11.2993 19.978 11.2458C19.9527 11.1834 19.8443 11.0259 19.7967 10.9843C19.7655 10.956 19.7655 10.956 19.7655 10.9947Z" fill="black"/>
<path d="M9.06787 11.3394C9.06787 11.3453 9.10947 11.4181 9.16148 11.5013C9.39177 11.8683 9.49875 12.0927 9.62653 12.476C9.74836 12.8415 9.85683 13.2575 9.98015 13.8355C10.0767 14.2887 10.1629 14.6616 10.1733 14.672C10.1822 14.6809 11.0529 14.8384 11.096 14.8384C11.1123 14.8384 11.1658 14.8117 11.2148 14.779C11.3307 14.7002 11.5001 14.6363 11.6606 14.6081C11.821 14.5799 12.1405 14.5784 12.8165 14.6037C13.3752 14.623 13.7555 14.6111 14.3721 14.5517L14.7065 14.519L14.7183 14.4298C14.7317 14.3347 14.7198 12.9054 14.705 12.6736L14.6946 12.5369L14.2845 12.5458C13.8283 12.5562 13.4777 12.5399 12.9354 12.4834C12.0915 12.3958 11.5506 12.3126 11.096 12.1996C10.5462 12.0644 10.3813 11.9367 10.4348 11.6885C10.469 11.534 10.5017 11.5533 10.1154 11.5087C9.92814 11.4865 9.70825 11.4582 9.6295 11.4478C9.52847 11.433 9.48389 11.4315 9.48389 11.4419C9.48389 11.4508 9.50618 11.4954 9.53441 11.5414C9.73202 11.8713 9.90586 12.2561 10.0574 12.7093C10.1198 12.895 10.1763 13.054 10.1822 13.0599C10.1971 13.0763 10.7602 13.1728 11.3857 13.265C11.668 13.3066 11.9072 13.3482 11.9161 13.3556C11.9399 13.3749 11.9295 13.421 11.8805 13.5309C11.824 13.6587 11.7824 13.6943 11.6873 13.6943C11.6442 13.6943 11.4006 13.6646 11.145 13.626C10.2773 13.5012 10.2565 13.4953 10.203 13.415C10.1896 13.3942 10.1555 13.2902 10.1287 13.1832C10.0723 12.9544 9.95935 12.6082 9.86128 12.3616C9.78402 12.164 9.57007 11.7331 9.45269 11.537L9.37692 11.4092L9.24171 11.3765C9.16593 11.3587 9.09759 11.3394 9.08719 11.3364C9.07679 11.3319 9.06787 11.3334 9.06787 11.3394ZM13.6575 13.36C13.9041 13.4195 14.075 13.6022 14.075 13.8088C14.075 13.9395 13.9591 14.1683 13.8373 14.2783C13.7437 14.3615 13.5356 14.4699 13.3915 14.51C13.1568 14.5754 12.98 14.5665 12.7526 14.4803C12.6293 14.4328 12.5134 14.3332 12.4436 14.2144C12.4079 14.1564 12.4035 14.1312 12.4035 14.0212C12.4035 13.9128 12.4094 13.883 12.4466 13.8058C12.4971 13.7033 12.6679 13.522 12.7601 13.4745C12.8329 13.4388 13.0736 13.36 13.1761 13.3392C13.2727 13.3199 13.5371 13.3318 13.6575 13.36Z" fill="black"/>
<path d="M13.1345 13.421C13.078 13.4329 13.0007 13.4551 12.9636 13.4685C12.8982 13.4938 12.8938 13.4982 12.9012 13.5383C12.922 13.6602 12.9086 13.7761 12.8611 13.8756C12.7823 14.042 12.6739 14.1252 12.5342 14.1252C12.5075 14.1252 12.4852 14.1312 12.4852 14.1371C12.4852 14.1431 12.5045 14.1787 12.5268 14.2159C12.5921 14.3184 12.6783 14.3823 12.815 14.4313C12.9235 14.4699 12.9577 14.4744 13.1092 14.4744C13.3128 14.4744 13.4346 14.4417 13.6233 14.3392C13.7808 14.2545 13.8699 14.1639 13.9427 14.0123C14.0096 13.8741 14.0185 13.7731 13.9724 13.6721C13.9412 13.6008 13.8268 13.4923 13.7525 13.4611C13.6025 13.3987 13.3217 13.3809 13.1345 13.421Z" fill="black"/>
<path d="M7.9832 11.3854C7.81382 11.4003 7.50775 11.4924 7.50775 11.528C7.50775 11.5533 7.72468 11.8757 7.87028 12.0674C7.94457 12.1655 8.06344 12.3036 8.13327 12.375C8.30562 12.5503 8.32345 12.5503 8.475 12.3898C8.60427 12.2546 9.01583 11.7405 9.01583 11.7153C9.01583 11.6737 8.57009 11.4552 8.40666 11.4151C8.31156 11.3914 8.09315 11.3765 7.9832 11.3854Z" fill="black"/>
<path d="M19.7879 11.4671C19.5546 11.5637 19.1297 11.7227 18.9335 11.7881C17.9722 12.1016 16.5429 12.366 15.0556 12.5027L14.7808 12.528L14.7882 12.9886C14.7926 13.2412 14.7956 13.6914 14.7941 13.9856L14.7926 14.5234L14.8595 14.5323C14.8967 14.5368 14.9665 14.5412 15.0155 14.5412H15.1062L15.0452 14.4892C15.0125 14.461 14.9709 14.4075 14.9531 14.3689C14.9145 14.2887 14.9115 14.253 14.8922 13.5755C14.8803 13.1966 14.8818 13.0896 14.8967 13.0748C14.9056 13.0659 15.072 13.0361 15.2636 13.0109C16.7732 12.8118 18.4269 12.4314 19.2679 12.0927C19.5531 11.9783 19.877 11.8356 19.8934 11.8178C19.9023 11.8074 19.9275 11.7197 19.9498 11.6217C19.9721 11.5236 19.9929 11.4315 19.9974 11.4166C20.0093 11.3795 19.9885 11.3854 19.7879 11.4671Z" fill="black"/>
<path d="M2.7042 11.4909C2.7146 11.5801 2.75472 11.6588 2.80969 11.7063C2.91221 11.7925 3.4263 12.054 4.14245 12.3839C5.26125 12.8994 6.1973 13.3229 6.21513 13.3229C6.22404 13.3229 6.2285 13.311 6.22404 13.2961C6.21958 13.2828 6.20918 13.1951 6.20027 13.1015C6.19284 13.0079 6.18095 12.9262 6.17501 12.9217C6.16758 12.9158 5.43509 12.5949 4.54361 12.2085C3.65214 11.8222 2.88101 11.4865 2.83049 11.4627C2.69826 11.4047 2.69231 11.4062 2.7042 11.4909Z" fill="black"/>
<path d="M7.28483 11.6529C7.18083 11.7316 7.18083 11.7316 7.2566 11.8965C7.31009 12.0095 7.36952 12.1075 7.54187 12.3542C7.61171 12.4537 7.69491 12.5904 7.72611 12.6558C7.8004 12.8118 7.8212 12.8177 7.93264 12.7152C7.9787 12.6721 8.03516 12.629 8.05893 12.6157C8.11093 12.5889 8.11242 12.5637 8.06636 12.5012C8.04704 12.4745 7.92224 12.2962 7.79 12.1045C7.49878 11.6841 7.42301 11.5845 7.39627 11.5845C7.38586 11.5845 7.33535 11.6157 7.28483 11.6529Z" fill="black"/>
<path d="M5.47962 11.7584C5.48259 11.7821 5.50042 11.9173 5.51825 12.06C5.54796 12.3081 5.55242 12.3259 5.61779 12.4656C5.65494 12.5444 5.69654 12.6186 5.70843 12.6305C5.7218 12.6424 5.83323 12.6959 5.95507 12.7479L6.17794 12.8445L6.18982 12.739C6.21211 12.531 6.2448 12.3586 6.29532 12.1937L6.34435 12.0288L6.30572 12.0124C6.07393 11.9233 5.50933 11.7183 5.49447 11.7183C5.47962 11.7183 5.47516 11.7301 5.47962 11.7584Z" fill="black"/>
<path d="M9.10945 11.8193C9.04557 11.8609 8.582 12.4403 8.52554 12.5488C8.50622 12.5874 8.50771 12.5889 8.59091 12.629C8.67857 12.6721 8.78109 12.7583 8.84796 12.846L8.88659 12.8965L8.92522 12.8192C8.9475 12.7761 9.03665 12.6231 9.1258 12.479C9.21346 12.3349 9.30706 12.1744 9.33381 12.1254L9.38284 12.0332L9.35164 11.9738C9.32192 11.9144 9.19712 11.7925 9.16591 11.7925C9.157 11.7925 9.13174 11.8044 9.10945 11.8193Z" fill="black"/>
<path d="M7.02044 11.9129C6.77083 12.2323 6.64305 12.6721 6.66831 13.1238C6.67425 13.2219 6.68465 13.3125 6.69059 13.3244C6.72179 13.3734 7.13187 13.2486 7.45875 13.0911C7.64596 13.002 7.6519 12.9945 7.63704 12.8534C7.62664 12.7509 7.55087 12.5949 7.38 12.32C7.30868 12.2056 7.21805 12.0466 7.17793 11.9664C7.13633 11.8876 7.10067 11.8222 7.0977 11.8222C7.09473 11.8222 7.06055 11.8624 7.02044 11.9129Z" fill="black"/>
<path d="M19.7135 11.9812C19.4817 12.0838 19.0315 12.2591 18.8517 12.317C18.3332 12.4849 17.4952 12.6944 16.7865 12.8326C16.2486 12.9366 15.1179 13.1149 14.9872 13.1149H14.9515L14.959 13.4224C14.9768 14.1 14.9827 14.2396 14.9976 14.2961C15.0199 14.3734 15.1194 14.4729 15.1967 14.4952C15.3765 14.5442 15.8207 14.4848 16.4165 14.3332C17.3362 14.097 17.7523 13.9633 18.4922 13.6661C18.9959 13.4641 19.1118 13.3987 19.293 13.2144C19.5144 12.9901 19.6348 12.7449 19.8116 12.1506C19.8443 12.0421 19.8695 11.9441 19.8665 11.9352C19.8636 11.9218 19.813 11.9381 19.7135 11.9812Z" fill="black"/>
<path d="M9.3605 12.2784C9.22084 12.5206 8.97717 12.9827 8.96974 13.0228C8.96528 13.0451 8.97123 13.1015 8.98311 13.1476C9.00689 13.2412 9.06483 13.3021 9.26393 13.4447C9.40805 13.5487 9.89836 13.8489 9.90876 13.84C9.92065 13.8281 9.7483 13.1253 9.64429 12.7657C9.58337 12.5503 9.46005 12.1952 9.43925 12.1744C9.43331 12.167 9.39765 12.2145 9.3605 12.2784Z" fill="black"/>
<path d="M19.3496 13.2516C19.2679 13.3392 19.2308 13.3898 19.2441 13.3942C19.2545 13.3972 19.3303 13.4507 19.412 13.5131C19.4952 13.5755 19.5651 13.6186 19.571 13.6111C19.5903 13.5903 19.6171 13.464 19.6171 13.3987C19.6171 13.3244 19.571 13.1966 19.5264 13.1505C19.5071 13.1312 19.4893 13.1149 19.4848 13.1164C19.4804 13.1164 19.4194 13.1773 19.3496 13.2516Z" fill="black"/>
<path d="M10.206 13.1996C10.2268 13.3169 10.2505 13.3734 10.2892 13.4016C10.3352 13.4358 10.4184 13.4507 11.1851 13.5606C11.5818 13.6186 11.7126 13.6319 11.7393 13.6201C11.7764 13.6037 11.8537 13.4536 11.8418 13.421C11.8374 13.4106 11.7839 13.3942 11.7096 13.3838L11.5863 13.366L11.5461 13.4135C11.4867 13.4834 11.4303 13.516 11.3649 13.516C11.3025 13.516 10.3828 13.3749 10.3412 13.3586C10.3085 13.3467 10.2684 13.2724 10.258 13.204C10.252 13.1699 10.2386 13.1505 10.2223 13.1476C10.1985 13.1431 10.197 13.1491 10.206 13.1996Z" fill="black"/>
<path d="M7.39631 13.2352C7.09916 13.3184 6.7604 13.4269 6.73662 13.4462C6.70988 13.4685 6.72325 13.5785 6.76782 13.6884C6.80943 13.7939 6.83766 13.8043 7.02635 13.7835C7.28637 13.7553 7.83462 13.6498 7.83462 13.6275C7.83462 13.626 7.81679 13.5859 7.79599 13.5383C7.74845 13.4373 7.71576 13.3184 7.71576 13.2516C7.71576 13.2129 7.70833 13.1996 7.67713 13.1892C7.6281 13.1699 7.63553 13.1684 7.39631 13.2352Z" fill="black"/>
<path d="M10.3307 13.2085C10.3307 13.2635 10.3649 13.2947 10.4362 13.308C10.7542 13.3675 11.3753 13.4536 11.4035 13.4432C11.4421 13.4284 11.4986 13.3719 11.4867 13.36C11.4822 13.3556 11.2653 13.3184 11.0053 13.2783C10.7438 13.2382 10.4986 13.1981 10.46 13.1892C10.3501 13.1669 10.3307 13.1699 10.3307 13.2085Z" fill="black"/>
<path d="M8.97867 13.4195C8.97867 13.467 8.91627 13.6156 8.86575 13.6899C8.83604 13.733 8.81524 13.7776 8.81969 13.7909C8.83009 13.8162 9.76763 14.2887 9.81072 14.2887C9.84489 14.2887 9.87163 14.2337 9.91472 14.0762L9.94295 13.9767L9.91026 13.9559C9.89244 13.9455 9.79734 13.892 9.69928 13.837C9.60122 13.7805 9.4051 13.6602 9.26395 13.5666C9.1228 13.473 9.00096 13.3972 8.99353 13.3972C8.98462 13.3972 8.97867 13.4076 8.97867 13.4195Z" fill="black"/>
<path d="M18.99 13.5235C18.7567 13.6438 17.9425 13.9618 17.5072 14.1015C17.2412 14.1876 16.3839 14.4179 16.1031 14.4788C15.6291 14.5814 15.1091 14.6334 14.8625 14.6022C14.7822 14.5932 14.6797 14.5888 14.6366 14.5932C14.4732 14.6126 14.4732 14.6066 14.6337 14.7166C14.7154 14.7715 14.8209 14.8473 14.8699 14.8845C14.9189 14.9216 15.0066 14.984 15.0645 15.0226L15.1685 15.091L15.2577 15.0613C15.3052 15.0434 15.7138 14.9276 16.1625 14.8013C17.5844 14.4031 17.9752 14.2753 18.9558 13.8801C19.1846 13.7879 19.3971 13.7047 19.4283 13.6943C19.458 13.6854 19.4833 13.6721 19.4833 13.6676C19.4818 13.6617 19.4253 13.6141 19.357 13.5636C19.1921 13.4373 19.1609 13.4343 18.99 13.5235Z" fill="black"/>
<path d="M19.617 13.678C19.5962 13.7003 19.5456 13.7315 19.5055 13.7449C19.4639 13.7597 19.2515 13.8444 19.0301 13.9321C18.0093 14.3407 17.5369 14.4982 16.1774 14.8756C15.7777 14.987 15.3795 15.1014 15.2933 15.1281C15.1239 15.1831 15.0645 15.1905 14.4018 15.2322C13.7154 15.2752 13.1092 15.299 12.6337 15.299C11.8463 15.299 11.4927 15.2648 10.5403 15.0969C10.2847 15.0524 10.0708 15.0182 10.0663 15.0227C10.0559 15.0331 10.1034 15.3302 10.1183 15.3451C10.1242 15.351 10.2401 15.3792 10.3753 15.409C10.5105 15.4387 10.8835 15.5308 11.2044 15.6125C11.5253 15.6942 11.8433 15.77 11.9102 15.7819C12.1078 15.8176 12.3945 15.8131 13.3469 15.7581C13.8595 15.7299 15.1358 15.6066 15.2012 15.5813C15.219 15.5739 15.2636 15.5219 15.2993 15.4669C15.4137 15.2901 15.4211 15.2856 15.8133 15.1905C16.1774 15.1014 16.7553 14.929 17.6706 14.6349C18.3258 14.4254 18.8726 14.2218 19.2217 14.0599C19.302 14.0227 19.3778 13.9915 19.3882 13.9915C19.4 13.9915 19.4268 14.0183 19.4476 14.0509C19.4714 14.0866 19.4981 14.1104 19.5115 14.1074C19.559 14.0985 19.6422 13.8845 19.669 13.7033C19.6809 13.626 19.6705 13.6216 19.617 13.678Z" fill="black"/>
<path d="M7.40375 13.8206C7.32649 13.831 7.18979 13.8444 7.09916 13.8489C6.90601 13.8608 6.854 13.8697 6.854 13.8905C6.854 13.9217 7.00258 14.1995 7.09767 14.3451C7.21059 14.5205 7.39632 14.7121 7.5761 14.8414C7.69942 14.929 7.9 15.0375 7.97281 15.0553C8.01292 15.0643 8.01292 15.0643 8.01292 14.9929C8.01292 14.9528 7.99955 14.776 7.98321 14.6007C7.96686 14.4254 7.95349 14.2174 7.95349 14.1401C7.95349 13.9707 7.93417 13.8964 7.8792 13.84C7.8376 13.7998 7.83165 13.7984 7.6905 13.7998C7.61027 13.8013 7.48101 13.8102 7.40375 13.8206Z" fill="black"/>
<path d="M8.08574 13.9351C8.05157 13.9989 8.09169 15.0004 8.13032 15.0747C8.15112 15.1118 8.25215 15.1504 8.33238 15.1504C8.40964 15.1504 8.40222 15.1757 8.43639 14.8087C8.44828 14.6735 8.47353 14.4462 8.49136 14.3006C8.50771 14.1564 8.51811 14.0227 8.51216 14.0019C8.49879 13.9469 8.35021 13.9024 8.1838 13.9024C8.11546 13.9024 8.1006 13.9068 8.08574 13.9351Z" fill="black"/>
<path d="M8.69636 13.9811C8.64733 14.0212 8.63693 14.0539 8.6087 14.2456C8.56413 14.5487 8.51807 14.9691 8.51807 15.0746V15.1697L8.65625 15.1608C8.83454 15.1489 8.93855 15.1207 9.1213 15.0315C9.29365 14.9483 9.47789 14.8176 9.57001 14.7121C9.65024 14.62 9.7691 14.4432 9.77207 14.4105C9.77356 14.3927 9.71116 14.3585 9.54326 14.2842C9.41697 14.2277 9.24016 14.149 9.14953 14.1074C8.96678 14.0227 8.79591 13.9618 8.74985 13.9618C8.73202 13.9618 8.70825 13.9707 8.69636 13.9811Z" fill="black"/>
<path d="M14.1047 14.6452C13.7154 14.6854 13.2593 14.6913 12.6412 14.669C11.98 14.6438 11.7676 14.6497 11.5685 14.6987C11.46 14.7255 11.3025 14.7968 11.2 14.8681C11.1643 14.8934 11.1257 14.9127 11.1138 14.9127C11.096 14.9127 10.8033 14.8622 10.203 14.7567C10.1599 14.7492 10.1555 14.7537 10.1154 14.8384C10.0916 14.8874 10.0753 14.929 10.0797 14.9335C10.0961 14.9483 10.9207 15.0895 11.2609 15.1355C11.8523 15.2158 12.5788 15.2425 13.3173 15.2113C13.8759 15.189 15.017 15.1192 15.0289 15.1073C15.0408 15.0969 14.855 14.9587 14.5668 14.7641C14.3454 14.6155 14.3647 14.62 14.1047 14.6452Z" fill="black"/>
</g>
<defs>
<clipPath id="clip0_1_2">
<rect width="19.9406" height="19.9406" fill="white" transform="translate(0.819519 0.342957)"/>
</clipPath>
</defs>
</svg>
