<svg width="852" height="852" viewBox="0 0 852 852" fill="none" xmlns="http://www.w3.org/2000/svg">
<circle cx="73.5809" cy="772.034" r="72.7586" transform="rotate(-89.4762 73.5809 772.034)" fill="#D4D4D4"/>
<circle cx="248.194" cy="773.631" r="72.7586" transform="rotate(-89.4762 248.194 773.631)" fill="#D4D4D4"/>
<circle cx="422.808" cy="775.227" r="72.7586" transform="rotate(-89.4762 422.808 775.227)" fill="#D4D4D4"/>
<circle cx="597.421" cy="776.823" r="72.7586" transform="rotate(-89.4762 597.421 776.823)" fill="#D4D4D4"/>
<circle cx="772.035" cy="778.42" r="72.7586" transform="rotate(-89.4762 772.035 778.42)" fill="#D4D4D4"/>
<circle cx="75.1776" cy="597.421" r="72.7586" transform="rotate(-89.4762 75.1776 597.421)" fill="#D4D4D4"/>
<circle cx="249.791" cy="599.018" r="72.7586" transform="rotate(-89.4762 249.791 599.018)" fill="#D4D4D4"/>
<circle cx="424.404" cy="600.614" r="72.7586" transform="rotate(-89.4762 424.404 600.614)" fill="#D4D4D4"/>
<circle cx="599.017" cy="602.211" r="72.7586" transform="rotate(-89.4762 599.017 602.211)" fill="#D4D4D4"/>
<circle cx="773.631" cy="603.807" r="72.7586" transform="rotate(-89.4762 773.631 603.807)" fill="#D4D4D4"/>
<circle cx="251.388" cy="424.404" r="72.7586" transform="rotate(-89.4762 251.388 424.404)" fill="#D4D4D4"/>
<circle cx="426.001" cy="426" r="72.7586" transform="rotate(-89.4762 426.001 426)" fill="#D4D4D4"/>
<circle cx="600.614" cy="427.596" r="72.7586" transform="rotate(-89.4762 600.614 427.596)" fill="#D4D4D4"/>
<circle cx="775.227" cy="429.193" r="72.7586" transform="rotate(-89.4762 775.227 429.193)" fill="#D4D4D4"/>
<circle cx="603.807" cy="78.3696" r="72.7586" transform="rotate(-89.4762 603.807 78.3696)" fill="#D4D4D4"/>
<circle cx="778.42" cy="79.9658" r="72.7586" transform="rotate(-89.4762 778.42 79.9658)" fill="#D4D4D4"/>
<circle cx="252.983" cy="249.79" r="72.7586" transform="rotate(-89.4762 252.983 249.79)" fill="#D4D4D4"/>
<circle cx="427.597" cy="251.387" r="72.7586" transform="rotate(-89.4762 427.597 251.387)" fill="#D4D4D4"/>
<circle cx="602.21" cy="252.983" r="72.7586" transform="rotate(-89.4762 602.21 252.983)" fill="#D4D4D4"/>
<circle cx="776.824" cy="254.58" r="72.7586" transform="rotate(-89.4762 776.824 254.58)" fill="#D4D4D4"/>
</svg>
